<svg width="350" height="98" viewBox="0 0 350 98" fill="none" xmlns="http://www.w3.org/2000/svg">
<path d="M48.4113 16.3552H77.0656V0H0V16.3552H28.6543V94.9909H48.4113V16.3552Z" fill="black"/>
<path d="M110.571 0L76.8142 94.9909H97.618L104.291 75.3647H139.226L145.375 94.9909H166.833L133.469 0H110.571ZM121.693 21.458H121.955L134.908 59.0095H109.525L121.693 21.458Z" fill="black"/>
<path d="M178.801 0V94.9909H197.25V27.215H197.642L236.24 94.9909H256.128V0H237.68V66.0749H237.418L199.736 0H178.801Z" fill="black"/>
<path d="M274.504 0V62.8039C274.504 91.1965 295.439 97.4769 311.533 97.4769C335.477 97.4769 350 86.4862 350 61.4955V0H330.243V62.6731C330.243 74.1871 324.748 80.7292 311.14 80.7292C301.85 80.7292 294.262 74.9722 294.262 61.7572V0H274.504Z" fill="black"/>
</svg>
