<svg width="144" height="40" viewBox="0 0 144 40" fill="none" xmlns="http://www.w3.org/2000/svg">
<g clip-path="url(#clip0_48_634)">
<path d="M20.3312 6.67559H32.0269V0H0.571533V6.67559H12.2672V38.7718H20.3312V6.67559Z" fill="black"/>
<path d="M45.7024 0L31.9241 38.7718H40.4154L43.1391 30.7611H57.3983L59.9081 38.7718H68.6664L55.0485 0H45.7024ZM50.2419 8.75837H50.3489L55.6358 24.0855H45.2754L50.2419 8.75837Z" fill="black"/>
<path d="M73.5515 0V38.7718H81.0817V11.1082H81.2417L96.996 38.7718H105.114V0H97.5838V26.9693H97.4768L82.0964 0H73.5515Z" fill="black"/>
<path d="M112.614 0V25.6342C112.614 37.2231 121.159 39.7865 127.728 39.7865C137.501 39.7865 143.428 35.3005 143.428 25.1002V0H135.364V25.5809C135.364 30.2804 133.122 32.9507 127.567 32.9507C123.775 32.9507 120.678 30.6009 120.678 25.207V0H112.614Z" fill="black"/>
</g>
<defs>
<clipPath id="clip0_48_634">
<rect width="142.857" height="40" fill="white" transform="translate(0.571533)"/>
</clipPath>
</defs>
</svg>
